<?xml version="1.0" encoding="utf-8"?>
<!-- Generator: Adobe Illustrator 19.0.0, SVG Export Plug-In . SVG Version: 6.00 Build 0)  -->
<svg version="1.1" id="Layer_1" xmlns="http://www.w3.org/2000/svg" xmlns:xlink="http://www.w3.org/1999/xlink" x="0px" y="0px"
	 viewBox="0 0 1000 1000" enable-background="new 0 0 1000 1000" xml:space="preserve">
<g id="XMLID_1_">
	<path id="XMLID_20_" d="M795.2885742,617.5536499l-289.62323-414.6074829
		c-0.0148621-0.0212708-0.033783-0.0381012-0.0488892-0.0592041c-0.1234436-0.1726532-0.2658691-0.3295135-0.4047852-0.4902649
		c-0.1009521-0.1167603-0.1941833-0.2415924-0.3018188-0.3505249c-0.1365356-0.1381989-0.2902832-0.258255-0.438446-0.3848114
		c-0.1281128-0.1092072-0.2494812-0.2272644-0.3843689-0.3263092c-0.1430664-0.1050262-0.3006287-0.1907959-0.4522705-0.2849731
		c-0.1568604-0.0973206-0.3087769-0.2026978-0.4723816-0.2868958c-0.1435852-0.0738678-0.2984619-0.1283875-0.4480896-0.192627
		c-0.1875-0.0803833-0.3721619-0.1662292-0.5658875-0.229599c-0.0256042-0.0083313-0.0482788-0.0218811-0.0739746-0.029953
		c-0.1303711-0.0409698-0.263092-0.0568542-0.3943481-0.0897522c-0.199585-0.0501709-0.3971252-0.1045074-0.6007996-0.1368103
		c-0.1661377-0.0262146-0.3315735-0.0328979-0.4978027-0.0469513c-0.196106-0.0167542-0.3907166-0.037674-0.588562-0.0375061
		c-0.1730957,0.0002594-0.3433228,0.0197906-0.5151062,0.0329895c-0.1901855,0.0144043-0.379425,0.0231781-0.5694275,0.0537262
		c-0.1833496,0.0294342-0.3610229,0.0795135-0.5409851,0.1234436c-0.1472168,0.0358429-0.2957458,0.0548553-0.4418335,0.1008606
		c-0.0280457,0.0088654-0.0527039,0.0235291-0.0805664,0.0326385c-0.1783752,0.0585938-0.3480835,0.1385498-0.5212708,0.2114716
		c-0.1643982,0.0692596-0.3334961,0.1296844-0.490448,0.2106781c-0.1515503,0.078125-0.2919312,0.1764679-0.4376831,0.2658844
		c-0.163269,0.1002502-0.331665,0.1927948-0.4850464,0.3054657c-0.1286621,0.0945282-0.2441101,0.2072906-0.3665771,0.3111115
		c-0.1540833,0.1308136-0.3132019,0.255722-0.4548035,0.3989563c-0.105896,0.1072083-0.1974792,0.2301178-0.296936,0.3449707
		c-0.1402893,0.1621552-0.2841187,0.3206482-0.4086914,0.494873c-0.0150146,0.0210114-0.0340271,0.0378418-0.0488892,0.0591125
		l-289.62323,414.6074829c-1.1009674,1.5760498-1.495575,3.5394897-1.0888977,5.4187622
		c0.4065094,1.8793335,1.5777893,3.5037842,3.2320404,4.4842529l289.6229858,171.5786743
		c0.0179443,0.0106812,0.0374146,0.0174561,0.0554504,0.0279541c0.0158081,0.0092163,0.0295105,0.0209961,0.0454102,0.0300293
		c0.1318665,0.0751953,0.2704773,0.1314087,0.4057312,0.1972046c0.1240234,0.0602417,0.2450562,0.1282349,0.3717041,0.1807251
		c0.1708374,0.0708618,0.3462524,0.1231079,0.5209045,0.1796265c0.1134644,0.0366211,0.2243958,0.0824585,0.3390808,0.1130981
		c0.2006836,0.0536499,0.4046631,0.0872192,0.60849,0.1224976c0.0927124,0.0160522,0.1841125,0.041748,0.2772522,0.0539551
		C499.3997803,799.9794922,499.6997681,800,499.9999695,800c0.3000793,0,0.6000671-0.0205078,0.8982544-0.0595703
		c0.0938416-0.0123291,0.1855774-0.038147,0.2789001-0.0543213c0.2033081-0.0352173,0.4067688-0.0686646,0.6070251-0.1221313
		c0.1146851-0.0306396,0.2255249-0.076416,0.3388977-0.1130371c0.1747437-0.0565186,0.3502502-0.1087646,0.5211792-0.1796875
		c0.1267395-0.0524902,0.2478333-0.1204834,0.3719788-0.1807861c0.1351318-0.0657959,0.2735901-0.1220703,0.405365-0.1971436
		c0.0158997-0.0090332,0.0296021-0.020813,0.0454102-0.0300293c0.0180359-0.010498,0.0375061-0.0172729,0.0554504-0.0279541
		L793.1454468,627.456665c1.6542358-0.9804688,2.8255005-2.6049194,3.2319946-4.4842529
		C796.7841797,621.0931396,796.3895264,619.1296997,795.2885742,617.5536499z M493.0893555,228.8634949v552.0997314
		L220.3077087,619.3614502L493.0893555,228.8634949z M506.9106445,780.9631958V228.8634949l272.7816162,390.4979553
		L506.9106445,780.9631958z"/>
</g>
</svg>
